<svg width="128" height="128" viewBox="0 0 128 128" fill="none" xmlns="http://www.w3.org/2000/svg">
<path d="M128 64C128 99.3458 99.3458 128 64 128C28.6542 128 0 99.3458 0 64C0 28.6542 28.6542 0 64 0C99.3458 0 128 28.6542 128 64Z" fill="#F6D743"/>
<path d="M64.0026 103.111C69.8936 103.111 74.6693 97.5395 74.6693 90.6667C74.6693 83.7938 69.8936 78.2222 64.0026 78.2222C58.1116 78.2222 53.3359 83.7938 53.3359 90.6667C53.3359 97.5395 58.1116 103.111 64.0026 103.111Z" fill="#02180F"/>
<path d="M110.222 39.1111C109.138 39.1111 108.075 38.6204 107.374 37.6889C97.9875 25.1698 85.8239 24.896 85.3083 24.8889C83.3528 24.8675 81.7741 23.2675 81.7848 21.3155C81.7955 19.3564 83.3741 17.7778 85.3297 17.7778C85.9839 17.7778 101.461 17.9555 113.063 33.4222C114.243 34.9938 113.923 37.2231 112.352 38.4C111.712 38.88 110.965 39.1111 110.222 39.1111ZM17.7706 39.1111C17.031 39.1111 16.2808 38.88 15.6408 38.4C14.0692 37.2231 13.7528 34.9938 14.9297 33.4222C26.5279 17.9555 42.0088 17.7778 42.663 17.7778C44.6257 17.7778 46.2186 19.3707 46.2186 21.3333C46.2186 23.2924 44.6364 24.8818 42.6772 24.8889C42.1261 24.896 29.991 25.1947 20.6186 37.6889C19.9217 38.6204 18.8515 39.1111 17.7706 39.1111Z" fill="#02180F"/>
<path d="M42.6701 64C47.5793 64 51.559 58.4284 51.559 51.5556C51.559 44.6827 47.5793 39.1111 42.6701 39.1111C37.7609 39.1111 33.7812 44.6827 33.7812 51.5556C33.7812 58.4284 37.7609 64 42.6701 64Z" fill="#02180F"/>
<path d="M85.3342 64C90.2434 64 94.2231 58.4284 94.2231 51.5556C94.2231 44.6827 90.2434 39.1111 85.3342 39.1111C80.425 39.1111 76.4453 44.6827 76.4453 51.5556C76.4453 58.4284 80.425 64 85.3342 64Z" fill="#02180F"/>
</svg>
